<?xml version="1.0" encoding="utf-8"?>
<!-- Generator: Adobe Illustrator 15.0.0, SVG Export Plug-In . SVG Version: 6.00 Build 0)  -->
<!DOCTYPE svg PUBLIC "-//W3C//DTD SVG 1.1//EN" "http://www.w3.org/Graphics/SVG/1.1/DTD/svg11.dtd">
<svg version="1.1" id="Layer_1" xmlns="http://www.w3.org/2000/svg" xmlns:xlink="http://www.w3.org/1999/xlink" x="0px" y="0px"
	 width="988px" height="988px" viewBox="0 0 988 988" enable-background="new 0 0 988 988" xml:space="preserve">
<g>
	<path fill-rule="evenodd" clip-rule="evenodd" d="M491,3.266c1.667,0,3.333,0,5,0c30.256,5.217,21,50.283,21,86
		c0,162.071,0,332.283,0,488c3.533,1.77,5.092-3.172,7-5c32.042-30.7,61.041-60.275,91-93c9.951-10.869,20.752-29.446,38-29
		c10.819,0.28,23.291,9.113,23,24c-0.189,9.709-11.696,21.242-18,28c-39.164,41.984-73.994,76.993-114,117
		c-12.146,12.146-30.496,42.39-51,42c-11.269-0.214-20.706-9.94-29-19c-46.161-50.422-88.732-92.968-135-141
		c-6.841-7.102-18.572-17.408-18-29c0.502-10.182,8-22.697,25-22c13.771,0.565,26.584,18.373,37,29
		c31.402,32.038,58.371,62.695,90,93c2.537,2.431,5.004,8.772,7,4c2.333-5.577,0-23.062,0-34c0-152.839,0-303.159,0-454
		C470,53.526,461.966,5.645,491,3.266z"/>
	<path fill-rule="evenodd" clip-rule="evenodd" d="M984,185.266c0,237.661,0,475.342,0,713c-5.205,32.634-21.639,59.138-48,75
		c-28.361,17.065-67.053,13-110,13c-206.217,0-408.812,0-615,0c-41.376,0-84.345,3.903-122,0c-46.713-4.842-78.765-45.108-85-88
		c0-237.661,0-475.342,0-713c6.468-45.231,42.031-82.612,87-87c33.768-3.295,76.058,0,114,0c16.68,0,37.034,0,57,0
		c32.815,0,66.197-5.719,68,22c2.214,34.052-36.858,27-69,27c-42.94,0-75.275,0-115,0c-21.023,0-42.523-2.511-57,1
		c-43.778,10.617-36,64.645-36,120c0,186.295,0,364.681,0,547c0,58.723-7.899,109.432,36,121c25.672,6.765,66.225,2,99,2
		c207.057,0,404.275,0,611,0c33.07,0,74.802,4.574,100-2c45.762-11.939,36-66.37,36-124c0-182.854,0-364.142,0-546
		c0-26.632,5.584-65.301-3-88c-16.418-43.413-81.774-31-146-31c-15.946,0-36.58,0-58,0c-34.731,0-68.326,6.038-68-25
		c0.299-28.386,29.964-24,60-24c14.967,0,31.072,0,45,0c59.061,0,131.457-8.993,169,12C960.944,125.332,977.928,150.974,984,185.266
		z"/>
	<path fill-rule="evenodd" clip-rule="evenodd" d="M298,755.266c11.634-2.991,36.541-1,54-1c106.172,0,208.103-2.173,318,0
		c17.916,0.354,29,7.192,29,23c0,32.477-54.803,24-92,24c-81.402,0-148.321,0-232,0c-34.899,0-91.982,8.738-94-22
		C280.195,767.009,288.513,757.705,298,755.266z"/>
</g>
</svg>
